<?xml version="1.0" standalone="no"?>
<!DOCTYPE svg PUBLIC "-//W3C//DTD SVG 20010904//EN"
 "http://www.w3.org/TR/2001/REC-SVG-20010904/DTD/svg10.dtd">
<svg version="1.0" xmlns="http://www.w3.org/2000/svg"
 width="512.000000pt" height="512.000000pt" viewBox="0 0 512.000000 512.000000"
 preserveAspectRatio="xMidYMid meet">

<g transform="translate(0.000000,512.000000) scale(0.100000,-0.100000)"
fill="#000000" stroke="none">
<path d="M1503 3085 c-17 -7 -33 -20 -37 -30 -21 -56 -27 -49 527 -603 498
-497 535 -532 567 -532 32 0 69 34 553 518 285 284 525 529 533 544 19 37 18
53 -9 84 -18 20 -32 27 -57 26 -31 -1 -78 -45 -526 -493 l-493 -493 -494 491
c-272 269 -503 492 -514 495 -11 3 -34 0 -50 -7z"/>
</g>
</svg>
